# xmcd CD database file
# Copyright (C) 1995 Ti Kan
#
# Track frame offsets:
#	150
#	15125
#	25830
#	39462
#	51577
#	64312
#	76020
#	91387
#	104035
#	120055
#	133017
#	145695
#	161592
#	173510
#	186800
#	203700
#	216040
#	228842
#	239025
#
# Disc length: 3474 seconds
#
# Revision: 1
# Processed by: cddbd v1.4b41PL1 Copyright (c) Steve Scherf et al.
# Submitted via: NotifyCDPlayer(CDDB) 1.50beta3
#
DISCID=f50d9013
DTITLE=SOLOMON BURKE - Home in Your Heart [CD2]
DYEAR=1900
DGENRE=
TTITLE0=Get Out of My Life Woman
TTITLE1=Save It
TTITLE2=Take Me (Just As I Am)
TTITLE3=When She Touch Me
TTITLE4=I Wish I Knew
TTITLE5=Party People
TTITLE6=Keep a Light in the Window
TTITLE7=I Feel A Sin Coming On
TTITLE8=Meet Me in Church
TTITLE9=Someone is Watching
TTITLE10=Detroit City
TTITLE11=Shame On Me
TTITLE12=I Stayed Away Too Long
TTITLE13=It's Just A Matter of Time
TTITLE14=Since I Met You Baby
TTITLE15=Time is a Thief
TTITLE16=Woman, How Do You Make Me Love You Like I Do
TTITLE17=It's Been a Change
TTITLE18=What'd I Say
EXTD=
EXTT0=
EXTT1=
EXTT2=
EXTT3=
EXTT4=
EXTT5=
EXTT6=
EXTT7=
EXTT8=
EXTT9=
EXTT10=
EXTT11=
EXTT12=
EXTT13=
EXTT14=
EXTT15=
EXTT16=
EXTT17=
EXTT18=
PLAYORDER=
